<svg id="Layer_1" height="512" viewBox="0 0 64 64" width="512" xmlns="http://www.w3.org/2000/svg" xmlns:xlink="http://www.w3.org/1999/xlink" data-name="Layer 1"><linearGradient id="linear-gradient" gradientUnits="userSpaceOnUse" x1="10.234" x2="50.911" y1="20.254" y2="43.738"><stop offset="0" stop-color="#ef32d9"/><stop offset="1" stop-color="#3f5efb"/></linearGradient><path d="m49 14h-9v-1c0-2.757-2.243-5-5-5h-6c-2.757 0-5 2.243-5 5v1h-9c-1.104 0-2 .896-2 2v6c0 1.104.896 2 2 2h.366l2.3 26.519c.271 3.125 2.841 5.481 5.978 5.481h16.714c3.137 0 5.707-2.356 5.978-5.481l2.3-26.519h.366c1.104 0 2-.896 2-2v-6c0-1.104-.896-2-2-2zm-21-1c0-.551.449-1 1-1h6c.551 0 1 .449 1 1v1h-8zm-11 5h30v2h-30zm25.349 32.173c-.09 1.042-.947 1.827-1.992 1.827h-16.714c-1.045 0-1.902-.786-1.992-1.827l-2.27-26.173h25.237l-2.27 26.173zm-16.346-3.068-1-19c-.058-1.103.789-2.044 1.892-2.102 1.096-.06 2.044.789 2.102 1.892l1 19c.058 1.103-.789 2.044-1.892 2.102-.036.002-.071.003-.106.003-1.057 0-1.939-.828-1.996-1.895zm8-.21 1-19c.058-1.103.995-1.951 2.102-1.892 1.103.058 1.95.999 1.892 2.102l-1 19c-.056 1.067-.939 1.895-1.996 1.895-.035 0-.071 0-.106-.003-1.103-.058-1.95-.999-1.892-2.102z" fill="url(#linear-gradient)"/></svg>
